<mxfile host="app.diagrams.net" modified="2020-04-25T10:35:07.046Z" agent="5.0 (Macintosh)" etag="Yp6qKY79XtLCPaU4hmhM" version="13.0.1" type="github">
  <diagram id="C5RBs43oDa-KdzZeNtuy" name="Page-1">
    <mxGraphModel dx="1731" dy="620" grid="1" gridSize="10" guides="1" tooltips="1" connect="1" arrows="1" fold="1" page="1" pageScale="1" pageWidth="827" pageHeight="1169" math="0" shadow="0">
      <root>
        <mxCell id="WIyWlLk6GJQsqaUBKTNV-0" />
        <mxCell id="WIyWlLk6GJQsqaUBKTNV-1" parent="WIyWlLk6GJQsqaUBKTNV-0" />
        <mxCell id="WIyWlLk6GJQsqaUBKTNV-2" value="" style="rounded=0;html=1;jettySize=auto;orthogonalLoop=1;fontSize=11;endArrow=block;endFill=0;endSize=8;strokeWidth=1;shadow=0;labelBackgroundColor=none;edgeStyle=orthogonalEdgeStyle;" parent="WIyWlLk6GJQsqaUBKTNV-1" source="WIyWlLk6GJQsqaUBKTNV-3" target="WIyWlLk6GJQsqaUBKTNV-6" edge="1">
          <mxGeometry relative="1" as="geometry" />
        </mxCell>
        <mxCell id="WIyWlLk6GJQsqaUBKTNV-3" value="&lt;a href=&quot;https://github.com/weliveindetail/ImmunHelden.de/issues/11&quot;&gt;2 Unikliniken zur Rekonvaleszenten-Plasmaspende kontaktiert&lt;/a&gt;" style="rounded=1;whiteSpace=wrap;html=1;fontSize=12;glass=0;strokeWidth=1;shadow=0;" parent="WIyWlLk6GJQsqaUBKTNV-1" vertex="1">
          <mxGeometry x="-150" y="230" width="130" height="80" as="geometry" />
        </mxCell>
        <mxCell id="WIyWlLk6GJQsqaUBKTNV-4" value="&lt;div align=&quot;left&quot;&gt;Negativ:&lt;br&gt;&lt;/div&gt;&lt;div align=&quot;left&quot;&gt;Haben Einwände&lt;br&gt;&lt;/div&gt;" style="rounded=0;html=1;jettySize=auto;orthogonalLoop=1;fontSize=11;endArrow=block;endFill=0;endSize=8;strokeWidth=1;shadow=0;labelBackgroundColor=none;edgeStyle=orthogonalEdgeStyle;align=left;" parent="WIyWlLk6GJQsqaUBKTNV-1" source="WIyWlLk6GJQsqaUBKTNV-6" target="WIyWlLk6GJQsqaUBKTNV-10" edge="1">
          <mxGeometry y="10" relative="1" as="geometry">
            <mxPoint as="offset" />
          </mxGeometry>
        </mxCell>
        <mxCell id="WIyWlLk6GJQsqaUBKTNV-5" value="&lt;div align=&quot;left&quot;&gt;Positiv: Wollen&lt;br&gt;teilnehmen&lt;/div&gt;" style="edgeStyle=orthogonalEdgeStyle;rounded=0;html=1;jettySize=auto;orthogonalLoop=1;fontSize=11;endArrow=block;endFill=0;endSize=8;strokeWidth=1;shadow=0;labelBackgroundColor=none;align=left;" parent="WIyWlLk6GJQsqaUBKTNV-1" source="WIyWlLk6GJQsqaUBKTNV-6" target="WIyWlLk6GJQsqaUBKTNV-7" edge="1">
          <mxGeometry x="-0.7143" y="20" relative="1" as="geometry">
            <mxPoint as="offset" />
          </mxGeometry>
        </mxCell>
        <mxCell id="eErChaB8MKPypUC0hWl1-0" style="edgeStyle=orthogonalEdgeStyle;rounded=0;orthogonalLoop=1;jettySize=auto;html=1;endArrow=block;endFill=0;strokeWidth=1;entryX=0;entryY=0.5;entryDx=0;entryDy=0;endSize=8;" edge="1" parent="WIyWlLk6GJQsqaUBKTNV-1" source="WIyWlLk6GJQsqaUBKTNV-6" target="eErChaB8MKPypUC0hWl1-1">
          <mxGeometry relative="1" as="geometry">
            <mxPoint x="250" y="160" as="targetPoint" />
            <Array as="points">
              <mxPoint x="250" y="270" />
              <mxPoint x="250" y="170" />
            </Array>
          </mxGeometry>
        </mxCell>
        <mxCell id="eErChaB8MKPypUC0hWl1-10" style="edgeStyle=orthogonalEdgeStyle;rounded=0;orthogonalLoop=1;jettySize=auto;html=1;entryX=0;entryY=0.5;entryDx=0;entryDy=0;endArrow=block;endFill=0;endSize=8;strokeWidth=1;" edge="1" parent="WIyWlLk6GJQsqaUBKTNV-1" source="WIyWlLk6GJQsqaUBKTNV-6" target="eErChaB8MKPypUC0hWl1-9">
          <mxGeometry relative="1" as="geometry">
            <Array as="points">
              <mxPoint x="250" y="270" />
              <mxPoint x="250" y="370" />
            </Array>
          </mxGeometry>
        </mxCell>
        <mxCell id="WIyWlLk6GJQsqaUBKTNV-6" value="Feedback" style="rhombus;whiteSpace=wrap;html=1;shadow=0;fontFamily=Helvetica;fontSize=12;align=center;strokeWidth=1;spacing=6;spacingTop=-4;" parent="WIyWlLk6GJQsqaUBKTNV-1" vertex="1">
          <mxGeometry x="30" y="220" width="100" height="100" as="geometry" />
        </mxCell>
        <mxCell id="eErChaB8MKPypUC0hWl1-6" style="edgeStyle=orthogonalEdgeStyle;rounded=0;orthogonalLoop=1;jettySize=auto;html=1;endArrow=block;endFill=0;endSize=8;strokeWidth=1;" edge="1" parent="WIyWlLk6GJQsqaUBKTNV-1" source="WIyWlLk6GJQsqaUBKTNV-7" target="eErChaB8MKPypUC0hWl1-2">
          <mxGeometry relative="1" as="geometry">
            <mxPoint x="520" y="270" as="targetPoint" />
          </mxGeometry>
        </mxCell>
        <mxCell id="WIyWlLk6GJQsqaUBKTNV-7" value="&lt;a href=&quot;https://www.blutspenden.de/blutspendedienste/&quot;&gt;Kontaktanfrage für Einrichtungen in&lt;br&gt;ganz Deutschland vorbereiten&lt;/a&gt;" style="rounded=1;whiteSpace=wrap;html=1;fontSize=12;glass=0;strokeWidth=1;shadow=0;" parent="WIyWlLk6GJQsqaUBKTNV-1" vertex="1">
          <mxGeometry x="340" y="230" width="130" height="80" as="geometry" />
        </mxCell>
        <mxCell id="WIyWlLk6GJQsqaUBKTNV-8" value="Erneut&lt;br&gt;versuchen" style="rounded=0;html=1;jettySize=auto;orthogonalLoop=1;fontSize=11;endArrow=block;endFill=0;endSize=8;strokeWidth=1;shadow=0;labelBackgroundColor=none;edgeStyle=orthogonalEdgeStyle;entryX=0.5;entryY=1;entryDx=0;entryDy=0;" parent="WIyWlLk6GJQsqaUBKTNV-1" source="WIyWlLk6GJQsqaUBKTNV-10" target="WIyWlLk6GJQsqaUBKTNV-3" edge="1">
          <mxGeometry x="-0.2889" y="-20" relative="1" as="geometry">
            <mxPoint as="offset" />
          </mxGeometry>
        </mxCell>
        <mxCell id="WIyWlLk6GJQsqaUBKTNV-10" value="Probleme&lt;br&gt;reviewen" style="rhombus;whiteSpace=wrap;html=1;shadow=0;fontFamily=Helvetica;fontSize=12;align=center;strokeWidth=1;spacing=6;spacingTop=-4;" parent="WIyWlLk6GJQsqaUBKTNV-1" vertex="1">
          <mxGeometry x="30" y="370" width="100" height="100" as="geometry" />
        </mxCell>
        <mxCell id="WIyWlLk6GJQsqaUBKTNV-11" value="Weitere Kontaktanfragen senden (Hinweis auf existierende Anzeigen)" style="rounded=1;whiteSpace=wrap;html=1;fontSize=12;glass=0;strokeWidth=1;shadow=0;" parent="WIyWlLk6GJQsqaUBKTNV-1" vertex="1">
          <mxGeometry x="760" y="130" width="130" height="80" as="geometry" />
        </mxCell>
        <mxCell id="eErChaB8MKPypUC0hWl1-3" style="edgeStyle=orthogonalEdgeStyle;rounded=0;orthogonalLoop=1;jettySize=auto;html=1;endArrow=block;endFill=0;endSize=8;strokeWidth=1;" edge="1" parent="WIyWlLk6GJQsqaUBKTNV-1" source="eErChaB8MKPypUC0hWl1-1" target="eErChaB8MKPypUC0hWl1-2">
          <mxGeometry relative="1" as="geometry" />
        </mxCell>
        <mxCell id="eErChaB8MKPypUC0hWl1-1" value="Beide Angebote auf Map bringen und&lt;br&gt;live schalten" style="rounded=1;whiteSpace=wrap;html=1;fontSize=12;glass=0;strokeWidth=1;shadow=0;" vertex="1" parent="WIyWlLk6GJQsqaUBKTNV-1">
          <mxGeometry x="340" y="130" width="130" height="80" as="geometry" />
        </mxCell>
        <mxCell id="eErChaB8MKPypUC0hWl1-4" style="edgeStyle=orthogonalEdgeStyle;rounded=0;orthogonalLoop=1;jettySize=auto;html=1;endArrow=block;endFill=0;endSize=8;strokeWidth=1;entryX=0.5;entryY=0;entryDx=0;entryDy=0;" edge="1" parent="WIyWlLk6GJQsqaUBKTNV-1" source="eErChaB8MKPypUC0hWl1-2" target="eErChaB8MKPypUC0hWl1-1">
          <mxGeometry relative="1" as="geometry">
            <mxPoint x="610" y="50" as="targetPoint" />
            <Array as="points">
              <mxPoint x="610" y="80" />
              <mxPoint x="405" y="80" />
            </Array>
          </mxGeometry>
        </mxCell>
        <mxCell id="eErChaB8MKPypUC0hWl1-5" value="&lt;div align=&quot;left&quot;&gt;Negativ: zusätzliche&lt;br&gt;&lt;/div&gt;&lt;div align=&quot;left&quot;&gt;Anforderungen einarbeiten&lt;br&gt;&lt;/div&gt;" style="edgeLabel;html=1;align=left;verticalAlign=middle;resizable=0;points=[];" vertex="1" connectable="0" parent="eErChaB8MKPypUC0hWl1-4">
          <mxGeometry x="0.0102" y="-1" relative="1" as="geometry">
            <mxPoint x="-51" y="-19" as="offset" />
          </mxGeometry>
        </mxCell>
        <mxCell id="eErChaB8MKPypUC0hWl1-7" style="edgeStyle=orthogonalEdgeStyle;rounded=0;orthogonalLoop=1;jettySize=auto;html=1;entryX=0;entryY=0.5;entryDx=0;entryDy=0;endArrow=block;endFill=0;endSize=8;strokeWidth=1;" edge="1" parent="WIyWlLk6GJQsqaUBKTNV-1" source="eErChaB8MKPypUC0hWl1-2" target="WIyWlLk6GJQsqaUBKTNV-11">
          <mxGeometry relative="1" as="geometry" />
        </mxCell>
        <mxCell id="eErChaB8MKPypUC0hWl1-24" value="Positiv" style="edgeLabel;html=1;align=center;verticalAlign=middle;resizable=0;points=[];" vertex="1" connectable="0" parent="eErChaB8MKPypUC0hWl1-7">
          <mxGeometry x="-0.58" y="-1" relative="1" as="geometry">
            <mxPoint x="19" y="-11" as="offset" />
          </mxGeometry>
        </mxCell>
        <mxCell id="eErChaB8MKPypUC0hWl1-2" value="Feedback" style="rhombus;whiteSpace=wrap;html=1;shadow=0;fontFamily=Helvetica;fontSize=12;align=center;strokeWidth=1;spacing=6;spacingTop=-4;" vertex="1" parent="WIyWlLk6GJQsqaUBKTNV-1">
          <mxGeometry x="560" y="120" width="100" height="100" as="geometry" />
        </mxCell>
        <mxCell id="eErChaB8MKPypUC0hWl1-18" style="edgeStyle=orthogonalEdgeStyle;rounded=0;orthogonalLoop=1;jettySize=auto;html=1;endArrow=block;endFill=0;endSize=8;strokeWidth=1;" edge="1" parent="WIyWlLk6GJQsqaUBKTNV-1" source="eErChaB8MKPypUC0hWl1-8" target="eErChaB8MKPypUC0hWl1-14">
          <mxGeometry relative="1" as="geometry" />
        </mxCell>
        <mxCell id="eErChaB8MKPypUC0hWl1-8" value="Anfrage bei Charite&lt;br&gt;Plasmaspende mit Videobegleitung" style="rounded=1;whiteSpace=wrap;html=1;fontSize=12;glass=0;strokeWidth=1;shadow=0;" vertex="1" parent="WIyWlLk6GJQsqaUBKTNV-1">
          <mxGeometry x="760" y="330" width="130" height="80" as="geometry" />
        </mxCell>
        <mxCell id="eErChaB8MKPypUC0hWl1-12" value="" style="edgeStyle=orthogonalEdgeStyle;rounded=0;orthogonalLoop=1;jettySize=auto;html=1;endArrow=block;endFill=0;endSize=8;strokeWidth=1;" edge="1" parent="WIyWlLk6GJQsqaUBKTNV-1" source="eErChaB8MKPypUC0hWl1-9">
          <mxGeometry relative="1" as="geometry">
            <mxPoint x="550" y="370" as="targetPoint" />
          </mxGeometry>
        </mxCell>
        <mxCell id="eErChaB8MKPypUC0hWl1-9" value="Registrierte ImmunHeldin in&lt;br&gt;Berlin kontaktieren" style="rounded=1;whiteSpace=wrap;html=1;fontSize=12;glass=0;strokeWidth=1;shadow=0;" vertex="1" parent="WIyWlLk6GJQsqaUBKTNV-1">
          <mxGeometry x="340" y="330" width="130" height="80" as="geometry" />
        </mxCell>
        <mxCell id="eErChaB8MKPypUC0hWl1-15" value="" style="edgeStyle=orthogonalEdgeStyle;rounded=0;orthogonalLoop=1;jettySize=auto;html=1;endArrow=block;endFill=0;endSize=8;strokeWidth=1;" edge="1" parent="WIyWlLk6GJQsqaUBKTNV-1" source="eErChaB8MKPypUC0hWl1-13">
          <mxGeometry relative="1" as="geometry">
            <mxPoint x="440" y="410" as="targetPoint" />
            <Array as="points">
              <mxPoint x="600" y="460" />
              <mxPoint x="440" y="460" />
              <mxPoint x="440" y="410" />
            </Array>
          </mxGeometry>
        </mxCell>
        <mxCell id="eErChaB8MKPypUC0hWl1-16" value="&lt;div align=&quot;left&quot;&gt;Negativ: neue&lt;br&gt;Kandidat:in finden&lt;br&gt;&lt;/div&gt;" style="edgeLabel;html=1;align=left;verticalAlign=middle;resizable=0;points=[];" vertex="1" connectable="0" parent="eErChaB8MKPypUC0hWl1-15">
          <mxGeometry x="0.3474" y="3" relative="1" as="geometry">
            <mxPoint y="-23" as="offset" />
          </mxGeometry>
        </mxCell>
        <mxCell id="eErChaB8MKPypUC0hWl1-17" style="edgeStyle=orthogonalEdgeStyle;rounded=0;orthogonalLoop=1;jettySize=auto;html=1;entryX=0;entryY=0.5;entryDx=0;entryDy=0;endArrow=block;endFill=0;endSize=8;strokeWidth=1;" edge="1" parent="WIyWlLk6GJQsqaUBKTNV-1" source="eErChaB8MKPypUC0hWl1-13" target="eErChaB8MKPypUC0hWl1-8">
          <mxGeometry relative="1" as="geometry" />
        </mxCell>
        <mxCell id="eErChaB8MKPypUC0hWl1-23" value="&lt;div&gt;Positiv&lt;/div&gt;" style="edgeLabel;html=1;align=center;verticalAlign=middle;resizable=0;points=[];" vertex="1" connectable="0" parent="eErChaB8MKPypUC0hWl1-17">
          <mxGeometry x="-0.2182" y="1" relative="1" as="geometry">
            <mxPoint y="-9" as="offset" />
          </mxGeometry>
        </mxCell>
        <mxCell id="eErChaB8MKPypUC0hWl1-13" value="Plasma-&lt;br&gt;spende mit Videobe-gleitung?" style="rhombus;whiteSpace=wrap;html=1;shadow=0;fontFamily=Helvetica;fontSize=12;align=center;strokeWidth=1;spacing=6;spacingTop=-4;" vertex="1" parent="WIyWlLk6GJQsqaUBKTNV-1">
          <mxGeometry x="550" y="320" width="100" height="100" as="geometry" />
        </mxCell>
        <mxCell id="eErChaB8MKPypUC0hWl1-19" style="edgeStyle=orthogonalEdgeStyle;rounded=0;orthogonalLoop=1;jettySize=auto;html=1;entryX=0.5;entryY=1;entryDx=0;entryDy=0;endArrow=block;endFill=0;endSize=8;strokeWidth=1;" edge="1" parent="WIyWlLk6GJQsqaUBKTNV-1" source="eErChaB8MKPypUC0hWl1-14" target="eErChaB8MKPypUC0hWl1-8">
          <mxGeometry relative="1" as="geometry">
            <Array as="points">
              <mxPoint x="1030" y="460" />
              <mxPoint x="825" y="460" />
            </Array>
          </mxGeometry>
        </mxCell>
        <mxCell id="eErChaB8MKPypUC0hWl1-20" value="&lt;div align=&quot;left&quot;&gt;Negativ: andere Spende-&lt;br&gt;einrichtung in Berlin finden&lt;br&gt;&lt;/div&gt;" style="edgeLabel;html=1;align=left;verticalAlign=middle;resizable=0;points=[];" vertex="1" connectable="0" parent="eErChaB8MKPypUC0hWl1-19">
          <mxGeometry x="0.1593" y="2" relative="1" as="geometry">
            <mxPoint x="-29" y="-22" as="offset" />
          </mxGeometry>
        </mxCell>
        <mxCell id="eErChaB8MKPypUC0hWl1-21" style="edgeStyle=orthogonalEdgeStyle;rounded=0;orthogonalLoop=1;jettySize=auto;html=1;entryX=0.25;entryY=1;entryDx=0;entryDy=0;endArrow=block;endFill=0;endSize=8;strokeWidth=1;" edge="1" parent="WIyWlLk6GJQsqaUBKTNV-1" source="eErChaB8MKPypUC0hWl1-14" target="eErChaB8MKPypUC0hWl1-9">
          <mxGeometry relative="1" as="geometry">
            <Array as="points">
              <mxPoint x="1030" y="500" />
              <mxPoint x="373" y="500" />
            </Array>
          </mxGeometry>
        </mxCell>
        <mxCell id="eErChaB8MKPypUC0hWl1-22" value="Negativ: ImmunHeld:in und Spendeeinrichtung an anderem Ort finden" style="edgeLabel;html=1;align=center;verticalAlign=middle;resizable=0;points=[];" vertex="1" connectable="0" parent="eErChaB8MKPypUC0hWl1-21">
          <mxGeometry x="0.2447" y="2" relative="1" as="geometry">
            <mxPoint x="245" y="-12" as="offset" />
          </mxGeometry>
        </mxCell>
        <mxCell id="eErChaB8MKPypUC0hWl1-26" value="&lt;div&gt;Positiv&lt;/div&gt;" style="edgeStyle=orthogonalEdgeStyle;rounded=0;orthogonalLoop=1;jettySize=auto;html=1;entryX=0;entryY=0.5;entryDx=0;entryDy=0;endArrow=block;endFill=0;endSize=8;strokeWidth=1;" edge="1" parent="WIyWlLk6GJQsqaUBKTNV-1" source="eErChaB8MKPypUC0hWl1-14" target="eErChaB8MKPypUC0hWl1-25">
          <mxGeometry x="-0.4286" y="10" relative="1" as="geometry">
            <mxPoint as="offset" />
          </mxGeometry>
        </mxCell>
        <mxCell id="eErChaB8MKPypUC0hWl1-31" style="edgeStyle=orthogonalEdgeStyle;rounded=0;orthogonalLoop=1;jettySize=auto;html=1;entryX=0;entryY=0.5;entryDx=0;entryDy=0;endArrow=block;endFill=0;endSize=8;strokeWidth=1;" edge="1" parent="WIyWlLk6GJQsqaUBKTNV-1" source="eErChaB8MKPypUC0hWl1-14" target="eErChaB8MKPypUC0hWl1-29">
          <mxGeometry relative="1" as="geometry" />
        </mxCell>
        <mxCell id="eErChaB8MKPypUC0hWl1-14" value="Plasma-&lt;br&gt;spende mit Videobe-gleitung?" style="rhombus;whiteSpace=wrap;html=1;shadow=0;fontFamily=Helvetica;fontSize=12;align=center;strokeWidth=1;spacing=6;spacingTop=-4;" vertex="1" parent="WIyWlLk6GJQsqaUBKTNV-1">
          <mxGeometry x="980" y="320" width="100" height="100" as="geometry" />
        </mxCell>
        <mxCell id="eErChaB8MKPypUC0hWl1-28" style="edgeStyle=orthogonalEdgeStyle;rounded=0;orthogonalLoop=1;jettySize=auto;html=1;entryX=0;entryY=0.5;entryDx=0;entryDy=0;endArrow=block;endFill=0;endSize=8;strokeWidth=1;" edge="1" parent="WIyWlLk6GJQsqaUBKTNV-1" source="eErChaB8MKPypUC0hWl1-25" target="eErChaB8MKPypUC0hWl1-27">
          <mxGeometry relative="1" as="geometry" />
        </mxCell>
        <mxCell id="eErChaB8MKPypUC0hWl1-25" value="Datum/Zeit vereinbaren, Team für Videodreh zusammenstellen" style="rounded=1;whiteSpace=wrap;html=1;fontSize=12;glass=0;strokeWidth=1;shadow=0;" vertex="1" parent="WIyWlLk6GJQsqaUBKTNV-1">
          <mxGeometry x="1220" y="330" width="130" height="80" as="geometry" />
        </mxCell>
        <mxCell id="eErChaB8MKPypUC0hWl1-33" style="edgeStyle=orthogonalEdgeStyle;rounded=0;orthogonalLoop=1;jettySize=auto;html=1;entryX=0;entryY=0.5;entryDx=0;entryDy=0;endArrow=block;endFill=0;endSize=8;strokeWidth=1;" edge="1" parent="WIyWlLk6GJQsqaUBKTNV-1" source="eErChaB8MKPypUC0hWl1-27" target="eErChaB8MKPypUC0hWl1-32">
          <mxGeometry relative="1" as="geometry" />
        </mxCell>
        <mxCell id="eErChaB8MKPypUC0hWl1-27" value="Erfahrungsbericht drehen und schneiden" style="rounded=1;whiteSpace=wrap;html=1;fontSize=12;glass=0;strokeWidth=1;shadow=0;" vertex="1" parent="WIyWlLk6GJQsqaUBKTNV-1">
          <mxGeometry x="1390" y="330" width="130" height="80" as="geometry" />
        </mxCell>
        <mxCell id="eErChaB8MKPypUC0hWl1-30" style="edgeStyle=orthogonalEdgeStyle;rounded=0;orthogonalLoop=1;jettySize=auto;html=1;entryX=0.5;entryY=0;entryDx=0;entryDy=0;endArrow=block;endFill=0;endSize=8;strokeWidth=1;" edge="1" parent="WIyWlLk6GJQsqaUBKTNV-1" source="eErChaB8MKPypUC0hWl1-29" target="eErChaB8MKPypUC0hWl1-27">
          <mxGeometry relative="1" as="geometry" />
        </mxCell>
        <mxCell id="eErChaB8MKPypUC0hWl1-29" value="&lt;div&gt;Anforderungen für Promovideo bei &lt;a href=&quot;https://twitter.com/vf_institute&quot;&gt;Vodafone Institute&lt;/a&gt;&lt;/div&gt;&lt;div&gt;abfragen&lt;br&gt;&lt;/div&gt;" style="rounded=1;whiteSpace=wrap;html=1;fontSize=12;glass=0;strokeWidth=1;shadow=0;" vertex="1" parent="WIyWlLk6GJQsqaUBKTNV-1">
          <mxGeometry x="1220" y="220" width="130" height="80" as="geometry" />
        </mxCell>
        <mxCell id="eErChaB8MKPypUC0hWl1-32" value="Social Media Kampagne mit Vodafone Institute" style="rounded=1;whiteSpace=wrap;html=1;fontSize=12;glass=0;strokeWidth=1;shadow=0;" vertex="1" parent="WIyWlLk6GJQsqaUBKTNV-1">
          <mxGeometry x="1570" y="330" width="130" height="80" as="geometry" />
        </mxCell>
      </root>
    </mxGraphModel>
  </diagram>
</mxfile>
